<?xml version="1.0" encoding="utf-8"?>
<!-- Generator: Adobe Illustrator 26.2.1, SVG Export Plug-In . SVG Version: 6.00 Build 0)  -->
<svg version="1.1" id="Layer_1" xmlns="http://www.w3.org/2000/svg" xmlns:xlink="http://www.w3.org/1999/xlink" x="0px" y="0px"
	 viewBox="0 0 1366 768" style="enable-background:new 0 0 1366 768;" xml:space="preserve">
<style type="text/css">
	.st0{fill:#C19BE5;}
	.st1{fill:#3A1174;}
	.st2{fill:#3A1476;}
	.st3{fill:#F6F5F8;}
	.st4{fill:#FDFDFD;}
	.st5{fill:#F28303;}
	.st6{fill:#C1B1D6;}
	.st7{fill:#BC5B1B;}
	.st8{fill:#A452FB;}
	.st9{fill:#E5C0FE;}
	.st10{fill:#5499FB;}
	.st11{fill:#F0C492;}
	.st12{fill:#EE1B33;}
	.st13{fill:#DD3360;}
	.st14{fill:#E463C1;}
	.st15{fill:#3B0777;}
</style>
<g>
	<path class="st0" d="M621.75,497.68c-2.28,1.27-4.88,1.77-7.44,2.2c-6.43,1.09-12.94,1.63-19.47,2.06
		c-7.05,0.47-14.11,0.48-21.16,0.48c-4.29,0-8.6,0.16-12.88-0.04c-5.12-0.25-10.24-0.49-15.34-1.01c-5.21-0.53-10.4-1.09-15.48-2.28
		c-1.42-0.33-2.81-0.76-4.03-1.54c-1.35-0.86-1.34-1.77,0.05-2.58c1.2-0.71,2.58-1.08,3.93-1.4c4.97-1.19,10.06-1.77,15.17-2.28
		c13.62-1.35,27.29-1.22,40.95-1.02c6.22,0.09,12.45,0.51,18.65,1.23c4.8,0.56,9.57,1.16,14.24,2.33c1.03,0.26,2.01,0.6,2.89,1.17
		C623.21,495.91,623.23,496.86,621.75,497.68z"/>
	<path class="st1" d="M558.12,353.45l-0.02,0v0.01h0.07L558.12,353.45z M565.78,351.05L565.78,351.05c-0.34-0.01-0.69,0.01-0.92-0.3
		c-0.21,0.07-0.42,0.13-0.63,0.2c-0.21,0.42-0.62,0.36-1.01,0.34c-0.16,0.03-0.32,0.07-0.47,0.1c-0.23,0.51-0.54,0.88-1.21,0.49
		c-0.12,0.04-0.23,0.07-0.35,0.11c-0.1,0.33-0.34,0.4-0.67,0.3l-0.01-0.01c-0.04,0.35-0.27,0.38-0.56,0.3l-0.03-0.01l0,0
		c0,0,0,0,0,0.01h0c-0.09,0.48-0.5,0.39-0.86,0.4c-0.1,0.04-0.2,0.08-0.3,0.12c-0.07,0.33-0.31,0.42-0.64,0.37
		c0,0.15-0.04,0.22-0.21,0.09c-2.86,1.32-5.35,3.13-7.67,5.12c-8.99,7.71-14.08,17.38-16.85,28.22c0.26,0.22,0.21,0.4-0.09,0.56
		l-0.03,0.1c0.28,0.54,0.55,1.08-0.42,1.28c-0.02,0.09-0.05,0.18-0.07,0.27c0.85,0.9-0.15,1.5-0.43,2.22l-0.16,0.56
		c0.19,0.04,0.43,0.09,0.37,0.29c-0.03,0.11-0.28,0.18-0.42,0.26c-0.08,0.35-0.17,0.71-0.25,1.06c0.64,0.35,0.69,0.65-0.1,0.88
		c-0.06,0.29-0.13,0.57-0.2,0.86c0.27,0.59,0.52,1.18-0.24,1.65c-0.02,0.18-0.04,0.37-0.07,0.55c0.99,0.63,0.21,1.14-0.15,1.67
		c-0.05,0.28-0.1,0.56-0.15,0.84c0.02,0.06,0.06,0.12,0.07,0.19c0,0.02-0.05,0.05-0.08,0.07c-0.02,0.37-0.04,0.75-0.05,1.12
		c0.38,0.4,0.45,0.77-0.09,1.11c-0.19,0.45-0.21,0.91-0.14,1.39c0.58,0.58,0.68,1.22,0.64,1.88c-0.04,0.55-0.18,1.11-0.22,1.63
		c-0.09,1.1-0.23,2.19-0.11,3.3c0.09,0.83-0.23,1.05-1.01,0.75c-1.77-0.49-3.59-0.42-5.4-0.35c-0.62,0.03-1.15,0.02-1.7-0.35
		c-2.34-1.56-4.9-1.49-7.44-0.52c-3.08,1.18-5.12,3.38-5.93,6.28c-0.6,2.13-1.42,4.1-2.62,5.97c-0.13,0.2-0.21,0.42-0.31,0.63
		c-2.76,6.05-2.65,12.25-0.99,18.49c0.25,0.93,0.26,1.75-0.19,2.65c-0.77,1.55-1.26,3.21-1.46,4.92c0.36,0.68,0.64,1.36-0.19,1.94
		c-0.01,0.27-0.02,0.55-0.03,0.83c0.93,0.96,0.56,2.01,0.22,3.05c1.45,7.99,6.76,12.98,14.72,15.92c1.41,0.52,2.85,0.86,4.4,0.88
		c6.65,0.1,13.09-0.81,19.27-3.08c0.87-0.32,1.29-0.24,1.75,0.55c0.88,1.5,1.83,2.99,3.41,4.01c0.6-0.21,1.11-0.51,1.38-1.07
		c-0.43-0.45-0.86-0.89-1.29-1.34c-0.05-0.02-0.11-0.03-0.13-0.07c-2.43-2.97-2.48-3.06,1.08-4.72
		c8.56-3.99,12.42-10.53,12.35-19.11c-0.04-4.85-2.2-9.05-5.86-12.56c-0.66-0.63-1.34-1.24-2.01-1.86c-1.64-0.7-2.5-1.87-3.11-3.47
		c-2.5-6.53-6.52-12.05-13.29-15.56c-0.64-0.33-1.49-0.33-1.92-1c-2.3-0.43-2.3-0.43-2.17-2.27c0.01-1.46,0.01-2.93,0.02-4.39
		c0.01-0.1,0.02-0.21,0.02-0.32c0.45-11.6,2.77-22.82,8.76-33.17c4.56-7.88,10.87-14.32,19.78-18.35c1.15-0.52,2.32-1.02,3.49-1.54
		c0.22-0.86,0.76-0.41,1.23-0.26c0.1,0.05,0.19,0.04,0.28-0.03c0-0.18,0-0.35,0-0.53C565.98,351.41,565.88,351.23,565.78,351.05z
		 M531.43,424.23c0.19,1.06,0.48,2.01,0.36,3.02C530.16,426.74,530.16,426.74,531.43,424.23z M521.46,442.03L521.46,442.03
		c-0.19,0.02-0.36,0.04-0.54,0.06c-1.31,0.14-2.62,0.27-3.92,0.41c-0.72,0.31-1.17,0.1-1.63-0.49c-1.48-1.92-1.5-4.04,0.02-5.68
		c0.32-0.28,0.65-0.56,0.98-0.84c0.08-0.08,0.16-0.16,0.24-0.23s0.17-0.14,0.25-0.2c0.04-0.03,0.09-0.06,0.13-0.09
		c0.13-0.09,0.27-0.16,0.41-0.23c0.05-0.02,0.1-0.04,0.15-0.06c0.48-0.19,1.02-0.25,1.63-0.16h0c0.6-0.12,1.16-0.13,1.67-0.04
		c0.17,0.03,0.34,0.07,0.5,0.12c0.08,0.02,0.15,0.05,0.23,0.08c0.12,0.04,0.24,0.1,0.35,0.16c0.17,0.08,0.33,0.17,0.48,0.28
		c0.13,0.09,0.26,0.19,0.38,0.29c0.06,0.05,0.13,0.11,0.18,0.16c0.06,0.05,0.12,0.11,0.18,0.17c0.12,0.12,0.23,0.24,0.34,0.37
		c0.98,1.16,1.83,2.4,2.72,3.62c0.91,1.24,0.88,1.29-0.75,1.49c-0.19,0.03-0.4,0-0.6-0.01c-0.83,0.51-1.83,0.47-2.76,0.69
		C521.89,441.94,521.67,441.99,521.46,442.03z M509.63,433.03c-0.56-0.2-0.16-0.52,0.04-0.75c0.51-0.58,1.08-1.08,1.84-1.38
		c1.2-0.57,2.6-0.64,3.76-1.33c0.56-0.34,0.82,0.03,0.9,0.51c0.16,0.86,0.34,1.72,0.44,2.59c0.11,0.99-0.93,1.06-1.53,1.48
		c-0.17,0.23-0.37,0.56-0.67,0.46C512.81,434.12,511.21,433.6,509.63,433.03z M524.12,434.38c-0.87-0.34-1.11-0.98-1.06-1.79
		c0.14-2.11,1.59-3.75,3.9-4.36c-0.01,0.01-0.01,0.03-0.02,0.04c0.07-0.05,0.16-0.09,0.24-0.12c1.4-0.22,2.7,0.03,3.9,0.71
		c0.4,0.23,0.68,0.43,0.42,0.98c-1.56,3.23-1.74,6.78-2.88,10.29C527.1,438.18,525.61,436.28,524.12,434.38z M522.92,423.7
		c-0.87-0.82-0.45-1.04,0.51-1.09c2.15-0.55,4.25,0.12,6.38,0.17c-0.62,3.26-0.93,3.65-2.88,3.82c-0.57,0.36-0.98,0.19-1.4-0.26
		C524.68,425.44,523.83,424.54,522.92,423.7z M530.97,420.21c0.04,0.17,0.18,0.45,0.12,0.5c-0.83,0.62-1.83,0.27-2.75,0.35
		c-0.68,0.06-1.02-0.23-0.95-0.88c-0.23-1.27-0.43-2.54-0.69-3.8c-0.11-0.55-0.02-0.81,0.65-0.63c0.09,0.02,0.2,0.03,0.3,0.04
		C530.84,416.26,530.84,416.26,530.97,420.21z M529.68,413.04c0.62,0.07,1.06,0.31,0.92,0.98c-0.17,0.81-0.79,0.35-1.18,0.29
		c-0.99-0.13-1.97-0.36-2.95-0.56c-0.53-0.11-1.12-0.16-1.21-0.96C526.8,412.6,528.24,412.87,529.68,413.04z M510.75,419.82
		c0.15-3.08,1.43-5.63,4.24-7.41c3.34-2.13,7.02-1.26,8.89,2.04c0.94,1.67,1.28,3.48,1.53,5.31c0.1,0.71-0.18,0.91-0.95,1.01
		c-1.62,0.23-3.35,0.4-4,2.18c0.61,1.6,2.14,2.54,3.27,3.76c0.59,0.63,0.66,0.96-0.09,1.51c-1.13,0.84-1.79,2.01-2.04,3.32
		c-0.12,0.65-0.41,0.75-1.01,0.54c-1.46-0.49-2.87-0.85-2.98-2.75c-0.11-1.79-0.96-2.1-2.72-1.31c-0.47,0.21-0.8,0.32-1.16-0.13
		c-1.7-2.12-3.04-4.35-2.87-7.1c-0.04-0.15-0.08-0.3-0.12-0.46C510.61,420.16,510.61,419.99,510.75,419.82z M508.92,422.6
		c0.71,2.47,1.65,4.51,3.25,6.35c-1.66,0.57-3.02,1.39-4.03,2.65c-0.45,0.57-0.68,1.04-0.68,1.44c0,0.59,0.51,1.04,1.55,1.4
		c1.08,0.38,2.17,0.73,3.25,1.12c0.39,0.15,1.07,0.13,1.05,0.62c-0.03,0.46-0.24,1-0.86,1.21c-1.96,0.68-3.58,1.81-5.11,3.37
		c-0.65-2.62-1.02-5.19-0.99-7.74C506.38,429.54,507.14,426.1,508.92,422.6z M551.5,433.83c7.59,5.46,9.6,14.44,5.12,22.48
		c-0.76,1.36-1.61,2.65-2.61,3.86c-0.41,0.49-0.78,1.09-1.59,1.17c0.01-0.01,0.02-0.02,0.02-0.03c-0.1,0.07-0.19,0.14-0.29,0.21
		c-0.06,0.11-0.13,0.2-0.23,0.26c-0.05,0.03-0.1,0.06-0.16,0.08c-0.06,0.02-0.12,0.04-0.19,0.05c-0.11,0.06-0.22,0.12-0.33,0.18
		l-0.02,0.08c0,0-0.02,0-0.04,0.01l-0.05,0.01c0,0.07-0.04,0.12-0.13,0.12c-4.47,3.04-9.48,5.02-14.84,6.26
		c-2.33,0.54-4.66,1.17-7.11,1.02c-0.2,0.02-0.39,0.04-0.59,0.07c-0.19,0.01-0.39,0.03-0.58,0.04l-0.13,0.02l-0.13-0.01
		c-0.49,0.25-1,0.26-1.53,0.15c-1.25,0-2.49,0-3.74,0c-0.43,0.14-0.84,0.1-1.21-0.15c-2.28-0.47-4.26-1.57-6.27-2.59
		c-0.37-0.01-0.53-0.24-0.66-0.5c-0.19-0.01-0.33-0.07-0.31-0.28c-1.95-0.87-3.31-2.34-4.57-3.89c-2.7-3.32-4.2-7.12-3.84-11.22
		c0.34-4,1.36-7.94,4.98-10.76c0.49-0.39,1.04-0.73,1.62-0.99c0.51-0.23,0.61,0.09,0.51,0.49c0.09,0.27,0.17,0.53,0.26,0.79
		c0.72,1.93,0.72,1.93-1.41,2.14c0.86,0.8,2.42,1.23,4.64,1.22c3.45,0,6.82-0.6,10.12-1.41c5.6-1.37,11.11-2.98,15.96-6.04
		c0.92-0.58,1.77-1.22,2.51-1.97c0.23-0.4,0.46-0.8,0.7-1.22c-1.05-0.16-1.77-1.4-1.4-2.29c0.24-0.58,0.75-0.34,1.16-0.29
		C547.65,431.18,549.69,432.29,551.5,433.83z M533.54,414.1c3.98,1.5,7.12,3.95,9.7,7.06c0.39,0.47,0.71,1,1.06,1.5
		c1.73,2.08,2.79,4.46,3.89,7.09c-1.85-0.5-3.56-0.73-5.32-0.71c-1.02,0.01-1.35-0.91-0.73-1.68c0.6-0.74,1.19-1.49,1.83-2.21
		c0.66-0.75,0.79-1.48,0.08-2.25c-1.57-0.48-3.05-1.14-4.55-1.78c-2.08-0.9-4.3-1.18-6.42,0.58c-0.18-2.49-0.34-4.81-0.53-7.14
		C532.46,413.57,533.03,413.91,533.54,414.1z M535.36,422.42c-0.2-0.53,0.59-0.37,1-0.34c1.63-0.22,2.92,0.5,4.13,1.33
		c0.58,0.39,1.76,0.2,1.76,0.95c0,0.56-0.84,1.09-1.2,1.68c-0.6,0.99-1.38,1.41-2.57,0.88c-0.34-0.03-0.88,0.05-1-0.12
		C536.52,425.45,535.93,423.93,535.36,422.42z M533.93,427.59c-0.28-1.74-0.47-3.41-1.02-5.22c1.09,0.38,1.02,1.19,1.36,1.73
		c0.3,0.48,0.45,1.04,0.75,1.51C535.74,426.73,535.63,427.46,533.93,427.59z M537.02,428.55c3.82-0.41,5.83,2.91,5.54,5.13
		c-0.06,0.44-0.11,0.95-0.61,1.21c-3.29,1.7-6.53,3.48-10.16,4.52c-0.3,0.26-0.66,0.57-1.04,0.4c-0.46-0.21-0.17-0.65-0.09-0.98
		c0.53-2.25,1.04-4.5,1.65-6.73C532.93,429.87,534.75,428.55,537.02,428.55z"/>
	<path class="st2" d="M633.48,459.1c-3.82,1.64-7.84,1.69-11.85,0.9c-3.3-0.65-5.28-0.15-7.23,2.35c-0.44,0.56-0.89,1.12-1.38,1.65
		c-2.02,2.24-4.55,2.94-7.59,2.08c-1.89-0.54-3.62-1.4-5.38-2.21c-1.43-0.66-2.88-1.35-4.54-1.4c-1.82-0.23-3.07,0.67-4.16,1.82
		c-1.32,1.41-2.19,3.08-3.19,4.68c-1.85,3-3.92,5.81-7.69,7.07c-3.36,0.44-6.23-0.64-8.83-2.45c-2.32-1.61-4.56-3.32-6.86-4.96
		c-0.99-0.7-1.96-1.44-3.19-1.8c-0.95-0.54-1.76-0.26-2.4,0.44c-0.58,0.63-1.09,1.32-1.59,2.01c-1.34,1.84-2.66,3.7-4.84,4.84
		c-1.94,0.6-3.74,0.51-5.26-0.91c0.6-0.21,1.11-0.51,1.38-1.07c2.04,0.91,2.95,0.78,4.55-0.73c1.59-1.5,2.66-3.34,3.92-5.05l-0.03,0
		l0,0c0.21-0.19,0.43-0.38,0.64-0.57c0.38-0.24,0.77-0.49,1.15-0.73c1.33-0.21,2.65-0.22,3.94,0.22c3.45,2.14,6.54,4.7,9.88,6.97
		c1.66,1.13,3.45,2.07,5.62,2.09c2.18,0.1,3.71-0.98,5.04-2.36c1.48-1.53,2.58-3.3,3.63-5.09c1.15-1.96,2.45-3.81,4.34-5.27
		c1.88-1.07,3.87-1.19,5.96-0.62c1.61,0.44,3.08,1.14,4.57,1.82c1.61,0.73,3.15,1.65,5.05,1.68c1.81,0.57,3.08-0.28,4.18-1.4
		c1.35-1.37,2.38-2.99,3.9-4.23c0.09-0.02,0.19-0.04,0.28-0.06c2.22-0.98,4.46-1.07,6.88-0.5c2.33,0.55,4.76,0.49,7.15,0.05
		c0.77,0.01,1.49-0.22,2.2-0.46c2.87-0.99,3.15-2.52,0.79-4.32c-3.6-2.76-6.49-6.04-8.86-9.73c-3.96-6.16-5.79-13.02-7.79-19.83
		c-0.53-1.81-1.85-2.23-3.54-1.03c-0.64,0.08-0.86,0.59-1.17,0.99c-2.05,2.7-4.96,3.08-7.76,0.94c-0.66-0.51-1.94-1.07-1.03-2.07
		c0.94-1.03,1.56,0.18,2.17,0.65c1.97,1.5,3.59,1.32,5.05-0.63c0.83-1.11,1.87-1.9,3.36-2.18c0.92-0.17,1.8-0.05,2.71,0
		c3.09,0.16,4.41-0.75,4.96-3.46c0.33-1.64,1.32-2.85,2.73-3.84c1.4-0.98,2.78-1.99,3.6-3.47c1.67-1.86,2.36-4.05,2.48-6.4
		c0.09-1.77-0.2-3.5-1.96-4.54c-1.77-1.05-3.35-0.13-4.91,0.69c-4.73,2.47-9.52,4.82-14.92,5.88c-0.13,0.03-0.26,0.05-0.39,0.08
		c0,0-0.03,0.03-0.05,0.04l-0.01,0.01c-1.6-0.05-3.23,0.15-4.75-0.5c-0.62-0.26-1.24-0.61-0.87-1.35c0.31-0.62,0.89-0.58,1.54-0.34
		c2.03,0.74,4.04,0.48,6.02-0.2c0.78,0.02,1.45-0.35,2.17-0.54c0.57-0.15,0.77-0.41,0.72-1.01c-0.27-3.55-0.2-7.11-0.26-10.67
		c-0.13-8-2.15-15.58-6.5-22.55c-4.32-6.94-10.3-12.26-18.51-15.29c-1.75-0.76-3.57-1.31-5.51-1.49c-0.21-0.1-0.43-0.19-0.64-0.28
		c-0.32-0.56-0.75-0.47-1.2-0.15c-0.2-0.03-0.41-0.05-0.62-0.07c-0.64-0.74-1.37-0.53-2.12-0.18c-3.58-0.01-7.16,0.06-10.62,1.1
		c0-0.18,0-0.35,0-0.53c1.25-0.33,2.5-0.66,4.07-1.08c-1.19-0.49-2.02,0.18-2.86-0.03c-0.1-0.1-0.2-0.19-0.3-0.29
		c2.38-0.65,4.81-0.92,7.29-0.84c1.1,0.47,2.21,0.42,3.32,0.03c7.5,0.52,14.04,3.18,19.75,7.57c8.62,6.62,13.23,15.32,15.4,25.26
		c0.38,1.72,0.72,3.45,0.7,5.21c-0.11,0.1-0.3,0.19-0.3,0.29c-0.03,2.98-0.05,5.96-0.05,8.94c0,0.35,0.3,0.27,0.55,0.22
		c0.1,1.29,0.25,2.58,0.27,3.87c0.02,0.89,0.34,0.87,1.07,0.55c2.42-1.05,4.75-2.23,7.08-3.44c4.99-2.59,9.03-0.13,9.27,4.58
		c0.24,4.76-1.85,8.67-5.85,11.63c-1.73,1.29-2.97,2.62-3.3,4.73c-0.28,1.8-1.68,2.9-3.61,3.35c-0.72,0.16-1.18,0.32-0.92,1.18
		c1.82,6.11,3.45,12.28,6.68,17.95c2.38,4.18,5.45,7.88,9.44,10.91c1.11,0.84,2.1,1.8,2.21,3.19
		C636.12,457.13,635.18,458.36,633.48,459.1z"/>
	<path class="st2" d="M615.23,458.84c0,0-0.01,0.01-0.02,0.01c0,0,0,0-0.01,0L615.23,458.84z"/>
	<path class="st3" d="M595.5,462.46c-3.66,2.79-5.08,7.02-7.95,10.33c-1.82,2.1-3.98,3.54-7.1,3.24c3.77-1.26,5.84-4.07,7.69-7.07
		c0.99-1.6,1.86-3.28,3.19-4.68C592.43,463.13,593.68,462.23,595.5,462.46z"/>
	<path class="st3" d="M561.58,466.83c-1.73,2.29-3.12,4.83-5.56,6.61c-0.93,0.68-1.95,1.38-3.27,0.69c2.18-1.14,3.5-2.99,4.84-4.84
		c0.5-0.69,1.01-1.38,1.59-2.01C559.82,466.56,560.63,466.29,561.58,466.83z"/>
	<path class="st1" d="M613.65,396.89c-0.25,0.06-0.55,0.13-0.55-0.22c0-2.98,0.02-5.96,0.05-8.94c0-0.1,0.19-0.19,0.3-0.29
		C613.91,390.58,613.63,393.74,613.65,396.89z"/>
	<path class="st2" d="M531.33,405.7c-0.04,0.55-0.18,1.11-0.22,1.63c-0.09,1.1-0.23,2.19-0.11,3.3c0.09,0.83-0.23,1.05-1.01,0.75
		c0.82-0.17,0.53-0.78,0.54-1.24c0.07-2.11,0.11-4.22,0.17-6.32C531.27,404.4,531.37,405.05,531.33,405.7z"/>
	<path class="st2" d="M503.92,454.93c-0.19-1.01-0.37-2.02-0.22-3.05C504.63,452.85,504.27,453.89,503.92,454.93z"/>
	<path class="st2" d="M532.34,391.32c0.14-0.74,0.28-1.48,0.43-2.22C533.61,390,532.61,390.6,532.34,391.32z"/>
	<path class="st2" d="M503.74,451.05c0.06-0.65,0.13-1.3,0.19-1.94C504.29,449.79,504.58,450.47,503.74,451.05z"/>
	<path class="st2" d="M531.13,399.1c0.05-0.56,0.1-1.11,0.15-1.67C532.27,398.07,531.49,398.57,531.13,399.1z"/>
	<path class="st1" d="M577.59,349.4c-1.11,0.39-2.22,0.44-3.32-0.03C575.38,349.24,576.49,349.31,577.59,349.4z"/>
	<path class="st2" d="M566.38,350.32c-0.2,0.24-0.4,0.48-0.61,0.72c-0.34,0-0.69,0.01-0.92-0.29
		C565.37,350.61,565.87,350.46,566.38,350.32z"/>
	<path class="st2" d="M531.35,396.88c0.08-0.55,0.16-1.11,0.24-1.65C531.86,395.82,532.11,396.41,531.35,396.88z"/>
	<path class="st2" d="M562.74,351.39c-0.23,0.51-0.54,0.88-1.21,0.49C561.94,351.71,562.34,351.55,562.74,351.39z"/>
	<path class="st2" d="M532.84,388.83c0.18-0.42,0.06-0.91,0.42-1.28C533.53,388.08,533.81,388.63,532.84,388.83z"/>
	<path class="st2" d="M530.83,402.44c0.03-0.37,0.06-0.74,0.09-1.11C531.3,401.72,531.37,402.1,530.83,402.44z"/>
	<path class="st1" d="M567.29,350.49c-0.4,0.42-0.92,0.56-1.51,0.55l0-0.01c0.2-0.24,0.4-0.48,0.61-0.72
		c0.2-0.04,0.4-0.07,0.61-0.11C567.08,350.3,567.18,350.4,567.29,350.49z"/>
	<path class="st2" d="M531.79,394.37c0.03-0.29,0.06-0.58,0.1-0.88C532.52,393.85,532.58,394.15,531.79,394.37z"/>
	<path class="st2" d="M532.55,392.17c-0.03,0.11-0.28,0.18-0.42,0.26c0.02-0.19,0.03-0.37,0.05-0.56
		C532.37,391.92,532.61,391.96,532.55,392.17z"/>
	<path class="st2" d="M559.91,352.56C559.91,352.56,559.91,352.56,559.91,352.56L559.91,352.56c-0.1,0.49-0.5,0.4-0.87,0.4
		C559.33,352.83,559.62,352.7,559.91,352.56z"/>
	<path class="st2" d="M564.22,350.95c-0.21,0.42-0.62,0.36-1.01,0.34C563.49,351.01,563.86,350.99,564.22,350.95z"/>
	<path class="st2" d="M561.18,351.99c-0.1,0.33-0.34,0.4-0.67,0.3C560.73,352.19,560.96,352.09,561.18,351.99z"/>
	<path class="st2" d="M560.5,352.28c-0.04,0.35-0.27,0.38-0.56,0.3c-0.01,0-0.02-0.01-0.04-0.01l0,0
		C560.11,352.47,560.31,352.38,560.5,352.28z"/>
	<path class="st2" d="M558.75,353.08c-0.07,0.33-0.31,0.42-0.64,0.37c0,0,0.01-0.01,0.02-0.01
		C558.33,353.33,558.53,353.2,558.75,353.08z"/>
	<path class="st2" d="M533.29,387.45c0.03-0.19,0.06-0.37,0.09-0.56C533.63,387.11,533.58,387.29,533.29,387.45z"/>
	<path class="st2" d="M558.1,353.44v0.01c0,0.15-0.04,0.22-0.21,0.09C557.94,353.47,558.01,353.44,558.1,353.44z"/>
	<path class="st2" d="M531.05,400.13c0,0.02-0.05,0.05-0.08,0.07c-0.05-0.09-0.05-0.17,0.01-0.26
		C531.01,400.01,531.04,400.07,531.05,400.13z"/>
	<path class="st4" d="M606.23,440.23c-2.22-2.08-4.52-4.1-6.43-6.44c-3.85-4.71-5.93-10.04-6.73-15.83
		c-0.41-2.98-0.71-5.97-0.58-8.98c-2.18,1.4-4.56,1.61-7.03,0.89c-0.98-0.29-2.09-0.68-2.1-1.89c0-1.24,1.04-1.69,2.13-2.02
		c2.51-0.76,4.85-0.47,6.99,0.98c0.26-5.13,1.02-10.19,1.91-15.26c1.45-8.31,1.95-16.64-0.68-24.86
		c-2.02-6.34-6.1-11.18-12.53-14.29c-0.45-0.22-1.14-0.25-1.13-0.95c-0.16-0.03-0.32-0.06-0.48-0.09c-0.4,0.21-0.74,0.13-1.05-0.16
		c-0.61-0.1-1.21-0.19-1.82-0.29c-3.58-0.01-7.16,0.06-10.62,1.1c-0.09,0.07-0.18,0.09-0.28,0.03c-0.4,0.14-0.75,0.46-1.23,0.26
		c-1.16,0.51-2.33,1.02-3.49,1.54c-8.91,4.02-15.21,10.46-19.78,18.35c-5.99,10.34-8.31,21.56-8.76,33.17
		c0.19,0.12,0.17,0.23-0.02,0.32c0,1.47-0.01,2.93-0.02,4.39c9.11,0.31,15.34,4.68,19.64,11.73c1.96,3.21,3.2,6.67,3.78,10.31
		c0.14,0.84,0.53,1.38,1.31,1.86c6.37,3.95,9.7,9.47,9.38,16.52c-0.25,5.48-2.46,10.32-7.18,13.98c-0.15,0.11-0.22,0.3-0.33,0.45
		c1.33-0.21,2.65-0.22,3.94,0.22c1.76-0.89,3.3-0.08,4.81,0.58c1.98,0.86,3.54,2.29,5.26,3.49c0.44,0.31,0.88,0.62,1.34,0.9
		c2.44,1.48,4.44,1.03,5.96-1.3c1.62-2.49,2.62-5.21,3.48-7.96c1.53-4.91,5.08-6.74,10.5-5.3c1.47,0.39,2.86,0.94,4.14,1.69
		c1.43,0.84,3,1.32,4.64,1.63c1.77,0.33,2.83-0.43,2.97-2.06c0.2-2.34,0.88-4.52,2.24-6.54
		C610.77,446.82,610.12,443.87,606.23,440.23z M544.96,407.53c-1.14,0.79-2.48,0.96-3.85,0.99c-1.38-0.07-2.73-0.24-3.86-1.02
		c-1.17-0.81-1.17-1.79-0.04-2.64c1.83-1.38,5.99-1.38,7.83,0.01C546.11,405.68,546.09,406.74,544.96,407.53z M552.78,398.27
		c-2.58,2.22-5.92,2.23-8.02-0.76c-1.1-1.57-1.53-3.3-1.5-5.16c0.14-2.64,0.81-5.1,2.97-7.01c2.51-2.23,5.81-1.91,7.79,0.73
		C556.6,389.5,556.09,395.43,552.78,398.27z M577.56,407.54c0,0.01,0,0.01-0.01,0.02l0.04,0.08l-0.06,0.07
		c-0.15,4.96-3.52,9.15-8.23,10.08c-2.96,0.59-5.69,0.03-8.07-1.75l-0.01-0.01c-3.01-1.94-4.31-4.77-4.93-7.94
		c-0.26-1.37-0.3-2.75-0.19-4.14c0.14-1.8,0.13-1.8,2.09-1.5c1.83,0.42,3.66,0.83,5.49,1.25c0.23,0.04,0.47,0.07,0.7,0.12
		c0.19-0.14,0.38-0.1,0.57-0.02c0.76,0,1.51,0,2.27-0.01c1.24-0.1,2.42-0.62,3.71-0.47c0.08-0.06,0.17-0.09,0.28-0.08
		c0.09-0.09,0.17-0.17,0.25-0.26c1-0.49,2-0.98,3-1.48c0.28-0.19,0.55-0.39,0.83-0.58l0.06-0.04c0.11-0.07,0.22-0.13,0.33-0.2v0h0
		c1.04-0.83,1.52-0.47,1.62,0.66l0.07,0.09l-0.05,0.1c0.26,0.57,0.27,1.16,0.23,1.76c0.16,0.43,0.17,0.87,0.07,1.32
		c0.22,0.52,0.22,1.03,0,1.55C577.77,406.61,577.72,407.08,577.56,407.54z M578.78,395.51c-0.46-0.54-0.34-1.08,0.04-1.66
		c2.2-3.31,7.12-5.44,11.32-4.86c0.41,0.06,1.06-0.08,1.13,0.47c0.09,0.69-0.68,0.56-1.1,0.68c-3.13,0.87-4.95,1.67-6.38,2.91
		c1.98,0.39,3.86,0.88,5.35,2.13c0.34,0.28,1.05,0.52,0.64,1.07c-0.31,0.42-0.83,0.05-1.24-0.1c-2.62-0.95-5.29-1.12-7.99-0.29
		C579.87,396.06,579.24,396.07,578.78,395.51z"/>
	<path class="st5" d="M514.23,466.62c0,0,0-0.01,0-0.01c0,0-0.01,0-0.02,0L514.23,466.62z M513.91,466.34L513.91,466.34
		C513.91,466.34,513.91,466.34,513.91,466.34L513.91,466.34L513.91,466.34z M546.47,435.14c-0.51-0.49-0.99-0.96-1.77-0.43
		c-0.75,0.76-1.6,1.4-2.51,1.97c-4.85,3.06-10.36,4.67-15.96,6.04c-3.3,0.81-6.67,1.41-10.12,1.41c-2.22,0-3.78-0.43-4.64-1.22
		c2.13-0.21,2.13-0.21,1.41-2.14c-0.1-0.26-0.18-0.53-0.26-0.79c-1.18,0.31-1.74,1.24-2.3,2.09c-4.79,7.16-4.28,16.54,2.58,23.03
		c0.39,0.37,1.04,0.6,1.03,1.26c0.24-0.04,0.36,0.03,0.32,0.27c0.51-0.14,0.61,0.16,0.64,0.52c2.01,1.02,3.98,2.12,6.27,2.59
		c0.42-0.06,0.85-0.14,1.21,0.15c1.24,0,2.49,0,3.74,0c0.48-0.33,1.01-0.23,1.53-0.15l0.13,0.01l0.13-0.02
		c0.17-0.28,0.36-0.31,0.58-0.04c0.19-0.03,0.39-0.05,0.59-0.07c0.96-1.01,2.42-0.96,3.64-1.41c4.94-1.81,9.99-3.63,13.57-7.28
		C553.41,453.64,554.15,442.52,546.47,435.14z M525.96,454.45c-0.35,2.14-2.47,3.66-4.85,3.5c-0.31-0.02-0.6-0.04-0.81-0.3
		c-0.38-0.05-0.76-0.1-1.14-0.15h0c-0.02,0.02-0.03,0.04-0.04,0.05c-0.04,0.04-0.07,0.03-0.08-0.08c-2.85-1.56-3.69-3.05-3.17-5.63
		c-0.05-0.14-0.02-0.24,0.15-0.29l-0.01-0.01c0.33-1.42,1.23-2.35,2.79-2.68c0.69-0.32,1.42-0.23,2.14-0.18
		c0.06,0,0.12,0.01,0.17,0.01c0,0,0,0,0.01,0c0.18-0.04,0.36-0.07,0.5,0.05c0.02,0.02,0.05,0.05,0.07,0.08
		c0.04,0.05,0.09,0.07,0.16,0.07C524.99,449.44,526.35,452.09,525.96,454.45z M531.83,450.86c0.02-0.14,0.06-0.26,0.13-0.35
		c0.01-0.02,0.03-0.03,0.04-0.05c0.07-0.08,0.17-0.13,0.28-0.16c0.04-0.01,0.09-0.02,0.13-0.03c0.08-0.01,0.16-0.02,0.24-0.02
		c0.16,0,0.33,0.02,0.49,0.05h0c0.34,0.01,0.62,0.09,0.84,0.21c0.04,0.03,0.09,0.05,0.13,0.08c0.04,0.03,0.08,0.06,0.12,0.09
		c0.32,0.29,0.49,0.71,0.61,1.18c0.24-0.03,0.34,0.07,0.31,0.28c0.23-0.03,0.33,0.08,0.3,0.29c1.07,0.62,1.2,1.23,0.22,1.6
		c-1.21,0.46-2.44,1.18-3.88,0.7C530.48,453.45,531.7,452.15,531.83,450.86z M543.41,459.67c-0.13,0.53-0.42,0.84-1.05,0.46
		c-0.31,0.31-0.62,0.38-0.95,0.03c-1.4,0.48-2.26,1.17-1.32,2.65c0.29,0.46,0.16,0.97-0.36,1.18c-0.94,0.37-1.82,0.98-2.94,0.74
		c-1.24,0.11-2.49,0.12-3.73-0.03h0l-0.01,0.01c-0.02,0.01-0.05,0.05-0.05,0.05l-0.04-0.09c-2.59-0.85-4.4-2.45-5.52-4.75
		c-0.9-1.83-0.66-2.25,1.48-2.4c0.3-0.02,0.6-0.06,0.9-0.09c0.66-0.35,1.16-0.2,1.38,0.46c0.13,0.38,0.36,0.64,0.71,0.83
		c0.98-0.16,2.13-0.16,1.69-1.6c-0.11-0.37,0.24-0.57,0.6-0.68c2.09-0.71,3.94-1.78,5.63-3.1c0.34-0.26,0.73-0.27,1.14-0.22
		c0.67-0.33,1.19-0.1,1.51,0.44C543.61,455.5,543.94,457.54,543.41,459.67z M546.55,450.85c-0.45,0.17-0.74,0.09-1.09-0.07
		c-0.03,0.04-0.05,0.09-0.06,0.13c-2.27,0.32-3.88-0.72-5.01-2.32c-1.15-1.63-1.15-3.44,0.05-5.08c1.17-1.6,2.93-1.98,4.92-1.54
		c0.26-0.03,0.53-0.06,0.73,0.15c0.22,0.07,0.45,0.14,0.67,0.22c2.11,0.8,3.04,2.39,3.14,4.34
		C550,448.61,548.71,450.01,546.55,450.85z"/>
	<path class="st6" d="M532.5,410.18c9.11,0.31,15.34,4.68,19.64,11.73c1.96,3.21,3.19,6.67,3.78,10.31
		c0.14,0.84,0.53,1.38,1.31,1.86c6.37,3.95,9.7,9.48,9.38,16.52c-0.25,5.48-2.46,10.32-7.18,13.98c-0.15,0.11-0.22,0.3-0.33,0.46
		c-0.38,0.24-0.77,0.49-1.15,0.73c-0.4,0.01-0.66,0.17-0.65,0.57c0,0,0.03,0,0.03,0c-0.42-0.12-0.79,0.03-1.14,0.22
		c-2.54,1.4-5.2,2.57-7.94,3.59c-0.34,0.13-0.65,0.24-0.69,0.63c-0.04-0.02-0.11-0.03-0.13-0.06c-2.43-2.97-2.48-3.06,1.08-4.72
		c8.56-3.99,12.43-10.53,12.35-19.11c-0.04-4.85-2.2-9.05-5.86-12.57c-0.66-0.63-1.34-1.24-2.01-1.86c0.59-0.28,0.68-0.71,0.54-1.28
		c-1.05-4.13-2.6-8.06-5.48-11.44c-3.42-4.01-7.75-6.66-13.37-7.3C532.37,412.02,532.37,412.02,532.5,410.18z"/>
	<path class="st7" d="M529.06,469.59c0.96-1.01,2.42-0.96,3.64-1.41c4.93-1.81,9.99-3.62,13.57-7.28
		c7.13-7.27,7.87-18.39,0.19-25.78c-0.51-0.49-0.99-0.96-1.77-0.43c0.23-0.4,0.46-0.8,0.7-1.21c-1.05-0.16-1.77-1.4-1.4-2.29
		c0.24-0.58,0.75-0.34,1.16-0.29c2.5,0.28,4.54,1.39,6.35,2.93c-0.21,0.48-0.2,0.47,0.47,1.11c3.87,3.69,5.89,8.1,5.9,13.21
		c0.01,5-2.17,9.3-5.43,13.2c0,0,0.02-0.03,0.02-0.03c-0.1,0.07-0.19,0.14-0.29,0.21c-0.11,0.22-0.31,0.34-0.57,0.38
		c-0.11,0.06-0.22,0.12-0.33,0.18l-0.03,0.08c0,0-0.09,0.02-0.09,0.02c-0.01,0.07-0.05,0.11-0.12,0.13
		c-4.47,3.04-9.48,5.02-14.84,6.26C533.84,469.11,531.51,469.73,529.06,469.59z"/>
	<path class="st4" d="M510.85,420.79c-0.04-0.15-0.08-0.3-0.12-0.46c0-0.17,0.01-0.34,0.01-0.51c0.15-3.08,1.43-5.63,4.24-7.42
		c3.34-2.12,7.02-1.26,8.88,2.04c0.94,1.67,1.27,3.48,1.54,5.31c0.1,0.71-0.18,0.91-0.95,1.01c-1.62,0.23-3.35,0.4-4,2.18
		c-2.77,1.05-5.23,0.39-7.61-1.05C512.21,421.5,511.75,420.8,510.85,420.79z"/>
	<path class="st8" d="M537.02,428.54c3.82-0.41,5.83,2.91,5.54,5.13c-0.06,0.44-0.11,0.96-0.61,1.22
		c-3.29,1.69-6.53,3.48-10.16,4.52C532.71,435.45,532.37,430.99,537.02,428.54z"/>
	<path class="st6" d="M510.85,420.79c0.9,0.01,1.35,0.71,2,1.1c2.37,1.45,4.84,2.11,7.61,1.05c0.61,1.6,2.14,2.54,3.27,3.76
		c0.59,0.63,0.66,0.96-0.09,1.51c-1.13,0.84-1.79,2.01-2.04,3.32c-0.12,0.65-0.41,0.75-1.01,0.54c-1.46-0.49-2.86-0.85-2.98-2.75
		c-0.11-1.79-0.96-2.1-2.72-1.31c-0.47,0.21-0.8,0.32-1.16-0.13C512.03,425.77,510.69,423.54,510.85,420.79z"/>
	<path class="st3" d="M534.67,412.45c5.62,0.64,9.95,3.29,13.37,7.3c2.89,3.38,4.43,7.32,5.48,11.44c0.15,0.57,0.05,1-0.54,1.28
		c-1.64-0.7-2.5-1.87-3.11-3.47c-2.5-6.54-6.51-12.05-13.29-15.56C535.95,413.12,535.1,413.11,534.67,412.45z"/>
	<path class="st9" d="M507.34,440.76c-1.53-6.21-1.51-12.11,1.57-18.16c0.71,2.47,1.65,4.51,3.25,6.35
		c-1.66,0.57-3.02,1.39-4.02,2.65c-1.12,1.41-0.88,2.22,0.87,2.84c1.08,0.38,2.18,0.73,3.25,1.13c0.39,0.15,1.07,0.13,1.05,0.62
		c-0.02,0.46-0.24,1-0.86,1.21C510.49,438.07,508.87,439.2,507.34,440.76z"/>
	<path class="st10" d="M527.18,428.15c1.4-0.22,2.7,0.04,3.9,0.71c0.41,0.23,0.69,0.43,0.42,0.98c-1.56,3.23-1.74,6.78-2.88,10.29
		c-1.53-1.95-3.02-3.85-4.51-5.75c0-1.7,0.02-3.39,1.41-4.76c0.47-0.46,1.13-0.77,1.43-1.39c0,0-0.02,0.04-0.02,0.04
		C527.01,428.22,527.1,428.18,527.18,428.15z"/>
	<path class="st3" d="M544.05,422.9c-1.57-0.48-3.05-1.14-4.55-1.78c-2.08-0.9-4.3-1.19-6.42,0.57c-0.18-2.49-0.34-4.81-0.53-7.13
		c-0.08-0.99,0.49-0.64,1-0.45c3.98,1.49,7.12,3.95,9.7,7.06c0.39,0.47,0.71,1,1.06,1.5C544.22,422.74,544.14,422.82,544.05,422.9z"
		/>
	<path class="st11" d="M512.61,439.96c-1.18,0.31-1.74,1.24-2.3,2.08c-4.8,7.17-4.29,16.55,2.57,23.03c0.39,0.37,1.05,0.6,1.03,1.26
		c-1.95-0.87-3.32-2.34-4.57-3.89c-2.7-3.32-4.2-7.12-3.84-11.23c0.35-4,1.36-7.94,4.98-10.76c0.49-0.39,1.05-0.73,1.63-0.99
		C512.6,439.25,512.7,439.57,512.61,439.96z"/>
	<path class="st12" d="M515.39,436.33c0.32-0.28,0.65-0.56,0.97-0.84c0.47,0.26,0.92,0.54,1.4,0.77c2.53,1.19,3.44,3.41,4.34,5.64
		c-0.22,0.04-0.44,0.08-0.65,0.13c-0.2-0.16-0.38-0.13-0.54,0.06c-1.31,0.14-2.62,0.27-3.92,0.41c-0.96-1.03-1.67-2.17-1.67-3.57
		C515.32,438.06,515.37,437.2,515.39,436.33z"/>
	<path class="st5" d="M552.43,461.35c3.27-3.9,5.44-8.2,5.43-13.2c-0.01-5.1-2.02-9.52-5.9-13.21c-0.67-0.64-0.68-0.63-0.47-1.11
		c7.59,5.46,9.6,14.44,5.12,22.48c-0.76,1.36-1.61,2.66-2.61,3.86C553.61,460.67,553.23,461.28,552.43,461.35z"/>
	<path class="st13" d="M522.11,441.9c-0.9-2.23-1.81-4.45-4.34-5.64c-0.48-0.23-0.94-0.51-1.4-0.77c0.74-0.79,1.66-1.16,2.81-0.99
		c1.04,0.3,2.17,0.45,2.9,1.3c1.18,1.37,2.18,2.85,3.05,4.4c0.23,0.42,0.33,0.78-0.25,1.01
		C524.03,441.72,523.03,441.68,522.11,441.9z"/>
	<path class="st3" d="M547.56,470.79c0.03-0.39,0.35-0.51,0.69-0.63c2.74-1.02,5.4-2.19,7.94-3.59c0.35-0.19,0.72-0.34,1.14-0.22
		c-1.26,1.71-2.33,3.56-3.92,5.06c-1.6,1.51-2.51,1.64-4.55,0.73C548.43,471.69,547.99,471.24,547.56,470.79z"/>
	<path class="st3" d="M544.31,422.66c1.72,2.08,2.79,4.46,3.89,7.09c-1.85-0.51-3.56-0.73-5.32-0.71c-1.02,0.01-1.35-0.91-0.73-1.68
		c0.6-0.74,1.19-1.49,1.83-2.21c0.66-0.75,0.78-1.48,0.08-2.25C544.14,422.82,544.22,422.74,544.31,422.66z"/>
	<path class="st12" d="M511.51,430.91c1.2-0.57,2.6-0.64,3.76-1.33c0.57-0.34,0.82,0.03,0.9,0.51c0.16,0.86,0.34,1.72,0.44,2.59
		c0.11,0.99-0.92,1.06-1.52,1.48c-0.75-0.26-1.49-0.53-2.24-0.78C510.75,432.65,510.75,432.65,511.51,430.91z"/>
	<path class="st8" d="M536.36,422.08c1.63-0.22,2.92,0.5,4.14,1.33c0.58,0.39,1.76,0.2,1.75,0.95c0,0.56-0.84,1.09-1.2,1.68
		c-0.61,0.99-1.38,1.41-2.57,0.88C537.78,425.3,537.07,423.69,536.36,422.08z"/>
	<path class="st10" d="M523.43,422.61c2.15-0.54,4.25,0.12,6.38,0.18c-0.63,3.26-0.93,3.65-2.88,3.82
		C526.08,425.04,524.25,424.19,523.43,422.61z"/>
	<path class="st3" d="M527.38,420.18c-0.23-1.27-0.43-2.54-0.69-3.81c-0.11-0.55-0.02-0.8,0.65-0.64c0.1,0.02,0.2,0.03,0.3,0.04
		c3.2,0.48,3.2,0.48,3.33,4.43C529.77,420.2,528.58,420.19,527.38,420.18z"/>
	<path class="st0" d="M537.02,428.54c-4.65,2.44-4.32,6.9-5.23,10.86c-0.29,0.26-0.66,0.57-1.04,0.4c-0.46-0.21-0.17-0.65-0.09-0.98
		c0.53-2.25,1.04-4.5,1.65-6.73C532.93,429.87,534.75,428.55,537.02,428.54z"/>
	<path class="st12" d="M524.86,441.21c0.59-0.23,0.49-0.59,0.25-1.01c-0.87-1.55-1.87-3.03-3.05-4.4c-0.73-0.85-1.86-1-2.9-1.3
		c1.84-0.37,3.25,0.33,4.32,1.6c0.98,1.16,1.83,2.4,2.72,3.62c0.91,1.24,0.88,1.29-0.75,1.49
		C525.27,441.24,525.06,441.21,524.86,441.21z"/>
	<path class="st14" d="M515.39,436.33c-0.02,0.87-0.07,1.73-0.07,2.6c0,1.4,0.71,2.54,1.67,3.57c-0.72,0.31-1.18,0.1-1.63-0.49
		C513.89,440.08,513.87,437.97,515.39,436.33z"/>
	<path class="st6" d="M526.96,428.23c-0.3,0.61-0.95,0.92-1.43,1.39c-1.39,1.37-1.42,3.06-1.41,4.76c-0.87-0.34-1.11-0.97-1.06-1.79
		C523.2,430.48,524.65,428.85,526.96,428.23z"/>
	<path class="st3" d="M533.93,427.59c-0.28-1.74-0.47-3.41-1.02-5.22c1.09,0.38,1.02,1.19,1.36,1.73c0.3,0.48,0.45,1.04,0.75,1.51
		C535.74,426.73,535.63,427.46,533.93,427.59z"/>
	<path class="st9" d="M525.26,412.8c1.54-0.19,2.97,0.07,4.41,0.24c0.62,0.07,1.06,0.31,0.92,0.98c-0.17,0.81-0.79,0.34-1.18,0.29
		c-0.99-0.13-1.97-0.35-2.95-0.56C525.94,413.64,525.35,413.59,525.26,412.8z"/>
	<path class="st14" d="M511.51,430.91c-0.76,1.75-0.76,1.74,1.33,2.46c0.75,0.26,1.5,0.52,2.24,0.78c-0.17,0.23-0.37,0.56-0.67,0.47
		c-1.61-0.49-3.21-1.02-4.78-1.59c-0.56-0.2-0.16-0.52,0.04-0.75C510.18,431.71,510.75,431.2,511.51,430.91z"/>
	<path class="st6" d="M523.43,422.61c0.82,1.58,2.65,2.43,3.5,3.99c-0.57,0.36-0.98,0.19-1.4-0.26c-0.84-0.9-1.7-1.79-2.61-2.64
		C522.05,422.88,522.47,422.66,523.43,422.61z"/>
	<path class="st0" d="M536.36,422.08c0.71,1.61,1.41,3.22,2.12,4.83c-0.34-0.03-0.88,0.05-1-0.12c-0.97-1.35-1.56-2.87-2.12-4.38
		C535.16,421.88,535.95,422.05,536.36,422.08z"/>
	<path class="st6" d="M527.38,420.18c1.19,0.01,2.39,0.02,3.58,0.03c0.04,0.17,0.18,0.46,0.12,0.51c-0.83,0.62-1.83,0.27-2.75,0.35
		C527.65,421.12,527.31,420.83,527.38,420.18z"/>
	<path class="st0" d="M531.43,424.23c0.2,1.06,0.48,2.01,0.36,3.02C530.16,426.74,530.16,426.74,531.43,424.23z"/>
	<path class="st15" d="M565.78,351.05c0.59,0.01,1.11-0.13,1.51-0.55c0.84,0.21,1.67-0.46,2.86,0.03c-1.57,0.42-2.82,0.75-4.07,1.08
		C565.98,351.42,565.88,351.23,565.78,351.05z"/>
	<path class="st2" d="M565.8,352.16c-0.4,0.14-0.75,0.46-1.23,0.26C564.78,351.56,565.33,352.01,565.8,352.16z"/>
	<path class="st7" d="M526.09,469.86c0.48-0.33,1.01-0.22,1.53-0.15C527.14,469.96,526.62,469.98,526.09,469.86z"/>
	<path class="st7" d="M521.14,469.71c0.42-0.05,0.84-0.15,1.21,0.15C521.92,470.01,521.52,469.97,521.14,469.71z"/>
	<path class="st11" d="M514.21,466.61c0.52-0.15,0.62,0.15,0.66,0.52C514.5,467.12,514.34,466.87,514.21,466.61z"/>
	<path class="st5" d="M551.25,462.09c0.11-0.06,0.22-0.12,0.33-0.18C551.48,461.97,551.36,462.03,551.25,462.09z"/>
	<path class="st13" d="M520.92,442.08c0.16-0.19,0.34-0.21,0.54-0.06C521.28,442.05,521.1,442.07,520.92,442.08z"/>
	<path class="st7" d="M527.89,469.7c0.17-0.28,0.37-0.31,0.58-0.04C528.28,469.68,528.09,469.69,527.89,469.7z"/>
	<path class="st5" d="M552.16,461.53c0.1-0.07,0.19-0.14,0.29-0.21C552.36,461.39,552.26,461.46,552.16,461.53z"/>
	<path class="st5" d="M551.01,462.31c0.07-0.02,0.11-0.06,0.12-0.13C551.13,462.27,551.09,462.31,551.01,462.31z"/>
	<path class="st6" d="M532.54,405.47c0.19,0.12,0.17,0.22-0.02,0.32C532.53,405.68,532.53,405.58,532.54,405.47z"/>
	<path class="st11" d="M513.91,466.34c0.25-0.05,0.37,0.04,0.32,0.28C514.02,466.62,513.88,466.56,513.91,466.34z"/>
	<path class="st6" d="M510.75,419.82c0,0.17-0.01,0.34-0.01,0.51C510.61,420.16,510.61,419.99,510.75,419.82z"/>
	<path class="st6" d="M527.18,428.15c-0.09,0.03-0.17,0.07-0.24,0.12C527.02,428.23,527.1,428.19,527.18,428.15z"/>
	<path class="st6" d="M563.04,465.26c1.76-0.89,3.3-0.08,4.81,0.58c1.98,0.86,3.54,2.29,5.26,3.49c0.44,0.31,0.88,0.62,1.34,0.9
		c2.44,1.47,4.44,1.03,5.96-1.3c1.62-2.49,2.62-5.21,3.48-7.96c1.54-4.91,5.08-6.74,10.5-5.31c1.47,0.39,2.86,0.94,4.14,1.69
		c1.43,0.84,3,1.32,4.64,1.63c1.77,0.33,2.83-0.43,2.97-2.06c0.2-2.34,0.88-4.52,2.24-6.54c2.39-3.56,1.73-6.51-2.15-10.15
		c-2.22-2.08-4.52-4.1-6.44-6.44c-3.85-4.71-5.93-10.04-6.73-15.83c-0.41-2.98-0.71-5.97-0.58-8.98c0.4-0.68,0.38-1.36-0.01-2.04
		c0.26-5.13,1.03-10.19,1.91-15.26c1.45-8.31,1.95-16.63-0.68-24.86c-2.02-6.34-6.1-11.18-12.53-14.29
		c-0.45-0.22-1.14-0.25-1.13-0.95c0.2-0.04,0.39-0.09,0.59-0.13c0.21,0.09,0.43,0.19,0.64,0.28c1.68,0.72,3.32,1.54,5.13,2.01
		c4.19,1.95,7.75,4.62,10.82,7.87c6.68,7.05,10.07,15.38,11.3,24.51c0.77,5.69,0.01,11.45,0.63,17.16c-1.98,0.68-3.99,0.94-6.02,0.2
		c-0.65-0.24-1.23-0.28-1.54,0.34c-0.37,0.74,0.24,1.09,0.87,1.35c1.52,0.65,3.15,0.45,4.74,0.5c0.04,0.27,0.16,0.55,0.12,0.81
		c-0.24,1.84-0.21,3.67,0.34,5.47c0.76,2.47,3.37,4.45,6.14,4.66c2.73,0.21,3.81-0.51,5.31-3.56c0.37-0.75,0.85-1.34,1.77-1.58
		c2.03-0.51,4.06-1.04,6.08-1.56c-0.83,1.48-2.2,2.49-3.6,3.47c-1.42,0.99-2.4,2.2-2.74,3.84c-0.55,2.71-1.87,3.62-4.96,3.46
		c-0.9-0.05-1.79-0.17-2.71,0c-1.49,0.28-2.53,1.07-3.36,2.18c-1.46,1.95-3.09,2.12-5.06,0.63c-0.62-0.47-1.23-1.68-2.17-0.64
		c-0.91,1,0.37,1.56,1.04,2.07c2.8,2.14,5.71,1.76,7.76-0.94c0.31-0.4,0.52-0.92,1.17-1c0.5,0.14,0.45,0.56,0.55,0.9
		c0.92,3.02,1.86,6.03,2.84,9.03c2.53,7.77,6.69,14.56,13.43,19.95c2.72,2.17,2.7,3.05,0.32,5.37c-0.01,0.01,0.04,0.08,0.06,0.12
		c-2.39,0.45-4.82,0.5-7.15-0.05c-2.42-0.57-4.66-0.48-6.88,0.51c-0.1,0.02-0.19,0.04-0.29,0.05c0,0,0.03-0.01,0.03-0.01
		c-2.32-0.05-3.99,0.97-5.27,2.65c-0.83,1.08-1.63,2.2-2.83,2.99c-1.89-0.02-3.44-0.94-5.05-1.68c-1.49-0.68-2.97-1.38-4.57-1.82
		c-2.09-0.58-4.08-0.45-5.96,0.62c-1.74-0.19-3.11,0.42-4.3,1.56c-0.81,0.78-1.5,1.62-2.08,2.53c-1.95,3.05-3.69,6.22-6.63,8.62
		c-2.17-0.02-3.96-0.96-5.62-2.09C569.58,469.96,566.49,467.4,563.04,465.26z"/>
	<path class="st4" d="M626.95,409.91c-2.03,0.52-4.05,1.05-6.08,1.56c-0.92,0.23-1.4,0.82-1.77,1.58c-1.51,3.06-2.59,3.77-5.31,3.56
		c-2.78-0.21-5.38-2.19-6.14-4.66c-0.55-1.8-0.59-3.62-0.34-5.47c0.03-0.26-0.08-0.54-0.12-0.81c0,0,0.06-0.05,0.06-0.05
		c0.16,0.11,0.28,0.03,0.39-0.08c5.4-1.06,10.19-3.41,14.92-5.88c1.56-0.82,3.14-1.73,4.91-0.69c1.76,1.04,2.06,2.77,1.96,4.54
		C629.31,405.86,628.62,408.05,626.95,409.91z"/>
	<path class="st3" d="M609.14,403.27c-0.61-5.71,0.14-11.47-0.63-17.16c-1.23-9.13-4.62-17.46-11.3-24.51
		c-3.07-3.25-6.63-5.91-10.82-7.87c-0.29-0.43,0.08-0.45,0.38-0.52c8.2,3.03,14.19,8.35,18.51,15.29
		c4.34,6.97,6.36,14.55,6.49,22.55c0.06,3.56-0.01,7.12,0.25,10.67c0.04,0.59-0.15,0.85-0.72,1.01
		C610.59,402.92,609.92,403.29,609.14,403.27z"/>
	<path class="st3" d="M629.52,458.34c-0.02-0.04-0.08-0.11-0.06-0.12c2.38-2.33,2.4-3.2-0.32-5.37
		c-6.74-5.38-10.9-12.18-13.43-19.95c-0.98-3-1.92-6.01-2.84-9.03c-0.1-0.34-0.05-0.76-0.55-0.9c1.69-1.2,3.01-0.78,3.54,1.03
		c2,6.8,3.83,13.67,7.79,19.83c2.37,3.69,5.27,6.98,8.86,9.73c2.35,1.8,2.07,3.34-0.79,4.32
		C631.02,458.13,630.3,458.36,629.52,458.34z"/>
	<path class="st3" d="M578.54,474.32c2.94-2.4,4.68-5.58,6.63-8.62c0.58-0.91,1.28-1.75,2.08-2.53c1.19-1.14,2.56-1.76,4.3-1.56
		c-1.89,1.45-3.19,3.3-4.34,5.27c-1.05,1.79-2.15,3.56-3.63,5.09C582.24,473.34,580.71,474.43,578.54,474.32z"/>
	<path class="st3" d="M607.13,464.48c1.2-0.79,2-1.9,2.83-2.99c1.28-1.68,2.95-2.7,5.27-2.65c-1.53,1.24-2.56,2.87-3.91,4.24
		C610.21,464.2,608.94,465.05,607.13,464.48z"/>
	<path class="st9" d="M586.77,353.21c-0.3,0.07-0.67,0.09-0.38,0.52c-1.8-0.47-3.44-1.29-5.13-2.01
		C583.2,351.9,585.02,352.45,586.77,353.21z"/>
	<path class="st1" d="M578.51,351.32c-0.61-0.1-1.21-0.19-1.82-0.29c0.75-0.35,1.48-0.56,2.12,0.18
		C578.71,351.25,578.61,351.29,578.51,351.32z"/>
	<path class="st1" d="M580.63,351.44c-0.2,0.04-0.39,0.09-0.59,0.13c-0.16-0.03-0.32-0.06-0.48-0.09c-0.02-0.08-0.06-0.14-0.13-0.19
		C579.88,350.97,580.3,350.87,580.63,351.44z"/>
	<path class="st6" d="M579.43,351.29c0.07,0.05,0.11,0.11,0.13,0.19c-0.4,0.21-0.74,0.13-1.05-0.16c0.1-0.04,0.2-0.07,0.3-0.11
		C579.02,351.24,579.22,351.26,579.43,351.29z"/>
	<path class="st3" d="M557.29,466.35c-0.01-0.4,0.25-0.56,0.65-0.57C557.73,465.97,557.51,466.16,557.29,466.35z"/>
	<path class="st3" d="M615.2,458.85c0.1-0.02,0.19-0.04,0.29-0.05C615.39,458.82,615.3,458.84,615.2,458.85z"/>
	<path class="st6" d="M607.63,405.53c-0.11,0.11-0.23,0.19-0.39,0.08C607.37,405.59,607.5,405.56,607.63,405.53z"/>
	<path class="st15" d="M558.2,402.44c1.83,0.42,3.66,0.84,5.49,1.25c1.42,0.85,2.92,0.21,4.4,0.16c-0.28-0.02-0.57-0.05-0.85-0.07
		c1.24-0.1,2.42-0.62,3.7-0.48c0.14,0.12,0.23,0.07,0.28-0.08c0.08-0.09,0.16-0.17,0.25-0.26c1.22-0.12,2.35-0.39,3-1.48
		c0.02,0.03,0.05,0.05,0.07,0.08c-0.02-0.03-0.05-0.05-0.07-0.08c0.52,0.1,0.89,0.02,0.83-0.58c0,0,0.06-0.04,0.06-0.04
		c0.19,0.04,0.3-0.03,0.33-0.2l0.09,0.1c0,0-0.09-0.1-0.09-0.1c0.61,0.07,1.22,0.17,1.63,0.66l0.07,0.08c0,0-0.05,0.1-0.05,0.1
		c0.01,0.59-0.23,1.22,0.23,1.76c0.16,0.43,0.17,0.87,0.07,1.32c0,0.52,0,1.03,0,1.55c0.14,0.47,0.09,0.94-0.07,1.4
		c0,0,0,0.02,0,0.02l0.04,0.08c0,0-0.06,0.07-0.06,0.07c-0.49,1.35-0.95,2.71-1.47,4.05c-1.97,5.06-8.29,7.24-13.4,4.61
		c-0.47-0.24-0.92-0.33-1.43-0.33c0,0-0.01-0.01-0.01-0.01c-0.02-0.52-0.51-0.77-0.79-1.14c-0.55-0.74-0.56-1.47,0.26-2.1
		c-0.16,0.46,0.08,0.77,0.4,1.11c3.01,3.17,8.53,3.32,11.74,0.37c0.9-0.82,0.75-1.31-0.17-1.95c-2.86-1.98-5.95-2.31-9.28-1.22
		c0.25-0.86,0.68-1.6,1.68-2.18c-1.26,0.17-1.32-0.76-1.87-1.68c-0.13,1.13-0.44,1.51-1.21,0.79c-0.53-0.5-0.9-0.06-1.25,0.27
		c-0.28,0.27-0.66,0.66-0.2,0.93c1,0.58,0.6,0.81-0.17,1.15c-0.35,0.15-0.56,0.53-0.9,0.72c-0.41,0.24-0.19,1.04-0.93,0.9
		c-0.69-0.13-0.78-0.74-1.04-1.24c-0.85-1.62-0.35-3.36-0.62-5.03C556.68,404.4,556.56,403.14,558.2,402.44z"/>
	<path class="st15" d="M554.02,386.07c-1.98-2.64-5.28-2.96-7.79-0.73c-2.16,1.91-2.83,4.37-2.97,7.01c-0.04,1.86,0.4,3.59,1.5,5.16
		c2.1,2.99,5.44,2.97,8.02,0.76C556.09,395.43,556.6,389.5,554.02,386.07z M551.61,393.31c-0.55,0.3-1.08,0.22-1.5-0.2
		c-0.92-0.88-1.04-1.94-0.72-3.07c0.09-0.31,0.19-0.63,0.36-0.9c0.38-0.61,0.86-1.19,1.75-1.07c0.86,0.12,1.21,0.76,1.44,1.43
		c0.1,0.3,0.11,0.63,0.15,0.9C553.01,391.59,552.79,392.66,551.61,393.31z"/>
	<path class="st2" d="M583.78,393.04c1.98,0.39,3.86,0.88,5.35,2.13c0.34,0.28,1.05,0.52,0.64,1.06c-0.31,0.42-0.82,0.05-1.23-0.1
		c-2.63-0.95-5.29-1.13-7.99-0.29c-0.68,0.21-1.31,0.22-1.78-0.34c-0.46-0.54-0.34-1.09,0.05-1.66c2.2-3.3,7.12-5.44,11.32-4.86
		c0.41,0.06,1.06-0.08,1.13,0.47c0.08,0.69-0.68,0.56-1.1,0.67C587.03,391,585.22,391.81,583.78,393.04z"/>
	<path class="st14" d="M592.46,406.93c0.39,0.68,0.41,1.36,0.01,2.04c-2.18,1.39-4.56,1.61-7.03,0.89c-0.98-0.29-2.09-0.68-2.1-1.89
		c0-1.24,1.04-1.69,2.13-2.02C587.98,405.2,590.32,405.48,592.46,406.93z"/>
	<path class="st14" d="M541.11,408.53c-1.38-0.07-2.73-0.24-3.86-1.02c-1.17-0.81-1.17-1.79-0.04-2.64
		c1.83-1.39,5.99-1.38,7.83,0.01c1.08,0.81,1.06,1.87-0.08,2.67C543.82,408.32,542.48,408.49,541.11,408.53z"/>
	<path class="st2" d="M558.2,402.44c-1.63,0.7-1.51,1.96-1.3,3.28c0.27,1.67-0.23,3.41,0.62,5.03c0.26,0.5,0.36,1.11,1.04,1.24
		c0.74,0.14,0.51-0.67,0.93-0.9c0.33-0.19,0.55-0.57,0.9-0.72c0.77-0.33,1.17-0.57,0.17-1.15c-0.46-0.26-0.08-0.66,0.2-0.93
		c0.34-0.33,0.72-0.77,1.25-0.27c0.77,0.72,1.08,0.34,1.21-0.79c0.55,0.92,0.61,1.85,1.87,1.68c-0.99,0.57-1.43,1.32-1.68,2.18
		l-0.02-0.03c-0.63-0.15-1.17,0.29-1.73,0.24c-0.4-0.03-0.87-0.5-1.18-0.02c-0.33,0.5,0.34,0.8,0.54,1.19l-0.03-0.03
		c-0.11,0.1-0.22,0.2-0.33,0.3l0.06,0.03c-0.82,0.62-0.8,1.35-0.26,2.1c0.28,0.37,0.76,0.62,0.79,1.14
		c-3.01-1.94-4.31-4.77-4.93-7.95c-0.26-1.37-0.3-2.75-0.2-4.14C556.25,402.14,556.24,402.14,558.2,402.44z"/>
	<path class="st2" d="M561.24,416.04c0.51-0.01,0.96,0.08,1.43,0.33c5.1,2.63,11.43,0.45,13.4-4.61c0.52-1.34,0.98-2.7,1.47-4.05
		c-0.15,4.96-3.52,9.15-8.23,10.08C566.35,418.37,563.62,417.82,561.24,416.04z"/>
	<path class="st2" d="M574.46,401.49c-0.65,1.09-1.78,1.36-3,1.48C572.46,402.47,573.46,401.98,574.46,401.49z"/>
	<path class="st1" d="M567.23,403.78c0.28,0.02,0.57,0.05,0.85,0.07c-1.47,0.05-2.98,0.69-4.4-0.16c0.24,0.04,0.47,0.08,0.71,0.12
		c0.19-0.01,0.38-0.01,0.57-0.02C565.72,403.79,566.47,403.79,567.23,403.78z"/>
	<path class="st2" d="M577.31,401.33c-0.41-0.5-1.01-0.59-1.63-0.66C576.73,399.84,577.21,400.19,577.31,401.33z"/>
	<path class="st2" d="M577.56,403.27c-0.46-0.54-0.23-1.16-0.23-1.76C577.58,402.07,577.6,402.67,577.56,403.27z"/>
	<path class="st2" d="M575.29,400.91c0.06,0.6-0.32,0.68-0.83,0.58C574.74,401.29,575.01,401.1,575.29,400.91z"/>
	<path class="st2" d="M577.63,406.13c0-0.52,0-1.03,0-1.55C577.85,405.1,577.85,405.62,577.63,406.13z"/>
	<path class="st2" d="M575.68,400.66c-0.03,0.17-0.14,0.25-0.33,0.2C575.46,400.8,575.57,400.73,575.68,400.66z"/>
	<path class="st2" d="M577.56,407.56c0,0,0.01-0.02,0-0.02C577.56,407.54,577.56,407.55,577.56,407.56z"/>
	<path class="st2" d="M571.22,403.23c-0.05,0.15-0.14,0.2-0.28,0.08C571.02,403.25,571.11,403.22,571.22,403.23z"/>
	<path class="st15" d="M564.96,403.79c-0.19,0.01-0.38,0.01-0.57,0.02C564.58,403.67,564.77,403.71,564.96,403.79z"/>
	<path class="st15" d="M531.91,458.74c0.98-0.16,2.13-0.15,1.69-1.6c-0.11-0.37,0.24-0.56,0.59-0.68c2.09-0.71,3.95-1.78,5.64-3.1
		c0.34-0.26,0.73-0.27,1.14-0.22c1.72,2.12,1.72,4.53,1.4,7c-0.31,0.31-0.62,0.38-0.95,0.03c-1.16-0.6-1.65,0.53-2.47,0.81
		c-0.66,0.23-0.45,0.77-0.22,1.17c0.74,1.32,0.2,2.01-1.25,2.32c-0.24,0.05-0.46,0.17-0.69,0.26c-1.24,0.11-2.49,0.12-3.73-0.03
		c0,0-0.09-0.03-0.09-0.03c-2.59-0.85-4.4-2.45-5.53-4.75c-0.9-1.83-0.66-2.25,1.48-2.4c0.3-0.02,0.6-0.06,0.89-0.09
		C530.46,457.94,530.06,459.86,531.91,458.74z"/>
	<path class="st15" d="M545.39,450.92c-2.27,0.31-3.88-0.72-5.01-2.32c-1.15-1.63-1.15-3.44,0.05-5.08c1.17-1.6,2.93-1.98,4.92-1.54
		c-0.05,0.02-0.1,0.04-0.14,0.07c0.33,0.61,0.93,0.76,1.59,0.82l-0.09,0.08l0.08-0.09c-0.01,0.3,0.21,0.38,0.47,0.41l0,0.01
		c0,0.42,0.04,0.8,0.64,0.81l-0.01-0.01c-0.01,0.32-0.09,0.67,0.4,0.79l-0.03,0.03c-0.02,1.09-0.03,2.18-0.05,3.27
		c-0.19,1.53-1.79,1.81-2.79,2.62c0,0,0.02-0.03,0.02-0.03C545.38,450.79,545.36,450.84,545.39,450.92z"/>
	<path class="st15" d="M520.3,457.65c-0.38-0.05-0.76-0.1-1.14-0.15c0,0-0.13-0.03-0.13-0.03c-2.85-1.56-3.69-3.05-3.17-5.63
		c0.05-0.1,0.1-0.19,0.15-0.29c0,0-0.01-0.01-0.01-0.01c0.5,0.26,0.14,1.11,0.95,1.17c0.04,0.02,0.07,0.03,0.11,0.05
		c-0.03-0.02-0.07-0.04-0.1-0.06c-0.09-0.36-0.26-0.71-0.26-1.07c-0.01-0.49,0.27-0.69,0.77-0.37c0.26,0.17,0.41,0.69,0.8,0.39
		c0.42-0.33-0.09-0.65-0.25-0.95c-0.12-0.23-0.15-0.43,0.08-0.62c0.36-0.08,0.56,0.17,0.77,0.35c0.45,0.38,0.9,0.4,1.33-0.01
		c0.35-0.32,0.92-0.64,0.69-1.12c-0.2-0.42-0.82-0.15-1.25-0.19c-0.3-0.03-0.61-0.02-0.84-0.24c0.74-0.35,1.53-0.21,2.31-0.17
		c0.19,0.04,0.39,0.08,0.58,0.13c0.04,0.05,0.09,0.08,0.16,0.07c2.12,1.27,3.35,2.98,2.84,5.37
		C524.23,456.4,522.6,457.43,520.3,457.65z"/>
	<path class="st1" d="M531.79,454.75c-1.31-1.3-0.09-2.6,0.04-3.89c0.07-0.65,0.73-0.65,1.32-0.55c0.51,0.58,0.99,1.19,1.7,1.59
		c0,0-0.01-0.02-0.01-0.02c0.01,0.18,0.11,0.29,0.32,0.29c0,0-0.02-0.01-0.02-0.01c0.01,0.19,0.11,0.29,0.32,0.29
		c0,0-0.01-0.01-0.01-0.01c0.36,0.86,0.09,1.39-0.92,1.62C533.6,454.26,532.7,454.52,531.79,454.75z"/>
	<path class="st11" d="M520.3,457.65c2.3-0.22,3.93-1.26,4.39-3.4c0.51-2.39-0.72-4.1-2.84-5.37c3.14,0.55,4.5,3.2,4.11,5.56
		c-0.35,2.14-2.47,3.66-4.85,3.5C520.8,457.93,520.5,457.91,520.3,457.65z"/>
	<path class="st11" d="M545.45,450.78c1-0.81,2.6-1.08,2.79-2.62c0.67-1.08,0.64-2.17,0.05-3.27c0,0,0.03-0.03,0.02-0.03
		c-0.02-0.31-0.1-0.59-0.4-0.79c0,0,0.01,0.01,0.01,0.01c-0.07-0.36-0.32-0.61-0.64-0.81c0,0,0-0.01,0-0.01
		c-0.16-0.14-0.32-0.27-0.47-0.41l-0.08,0.09c0,0,0.09-0.08,0.09-0.08c-0.08-0.11-0.16-0.22-0.24-0.34
		c0.06-0.06,0.13-0.12,0.19-0.19c2.11,0.8,3.03,2.39,3.14,4.34c0.1,1.91-1.19,3.32-3.35,4.16
		C546.09,451.03,545.8,450.94,545.45,450.78z"/>
	<path class="st11" d="M542.36,460.14c0.32-2.46,0.33-4.88-1.4-7c0.67-0.33,1.19-0.1,1.51,0.44c1.13,1.92,1.47,3.96,0.93,6.1
		C543.28,460.21,542.99,460.52,542.36,460.14z"/>
	<path class="st2" d="M518.8,448.87c0.24,0.22,0.54,0.2,0.84,0.24c0.43,0.05,1.05-0.22,1.25,0.19c0.23,0.48-0.35,0.8-0.69,1.12
		c-0.43,0.4-0.88,0.39-1.33,0.01c-0.21-0.18-0.41-0.43-0.77-0.35c-0.22,0.19-0.2,0.4-0.08,0.62c0.16,0.31,0.67,0.62,0.25,0.95
		c-0.39,0.3-0.54-0.22-0.8-0.39c-0.5-0.33-0.78-0.12-0.77,0.37c0.01,0.36,0.17,0.72,0.26,1.07l-0.01,0.01
		c-0.81-0.06-0.45-0.9-0.95-1.17C516.33,450.13,517.23,449.21,518.8,448.87z"/>
	<path class="st11" d="M536.78,464.73c0.23-0.09,0.45-0.21,0.69-0.26c1.45-0.31,1.99-1,1.25-2.32c-0.22-0.4-0.44-0.94,0.22-1.17
		c0.81-0.29,1.31-1.41,2.47-0.81c-1.4,0.48-2.26,1.17-1.32,2.65c0.29,0.46,0.16,0.97-0.36,1.18
		C538.79,464.37,537.9,464.98,536.78,464.73z"/>
	<path class="st11" d="M531.79,454.75c0.91-0.23,1.81-0.49,2.73-0.69c1-0.22,1.28-0.76,0.92-1.62c1.08,0.62,1.22,1.24,0.24,1.61
		C534.45,454.51,533.23,455.23,531.79,454.75z"/>
	<path class="st11" d="M531.91,458.74c-1.84,1.13-1.45-0.79-2.1-1.29c0.66-0.35,1.16-0.2,1.39,0.46
		C531.33,458.28,531.55,458.54,531.91,458.74z"/>
	<path class="st11" d="M534.85,451.89c-0.71-0.4-1.19-1.01-1.7-1.59C534.26,450.35,534.64,451.04,534.85,451.89z"/>
	<path class="st11" d="M545.22,442.05c0.05-0.02,0.09-0.04,0.14-0.07c0.26-0.03,0.53-0.06,0.73,0.15l-0.07,0.08
		C545.75,442.16,545.49,442.1,545.22,442.05z"/>
	<path class="st11" d="M521.69,448.82c-0.2-0.04-0.39-0.08-0.58-0.13C521.32,448.65,521.54,448.62,521.69,448.82z"/>
	<polygon class="st11" points="532.96,464.68 533.05,464.71 532.99,464.77 	"/>
	<path class="st11" d="M546.09,442.13c0.22,0.07,0.45,0.14,0.67,0.21c-0.06,0.06-0.13,0.12-0.19,0.19
		c-0.18-0.11-0.37-0.22-0.55-0.33L546.09,442.13z"/>
	<path class="st11" d="M519.03,457.48c0,0,0.13,0.03,0.13,0.03C519.09,457.58,519.04,457.63,519.03,457.48z"/>
	<path class="st2" d="M516.01,451.56c-0.05,0.1-0.1,0.19-0.15,0.29C515.81,451.71,515.85,451.61,516.01,451.56z"/>
	<path class="st11" d="M535.15,452.17c-0.21-0.01-0.31-0.11-0.32-0.29C535.08,451.85,535.19,451.95,535.15,452.17z"/>
	<path class="st11" d="M535.45,452.45c-0.21-0.01-0.31-0.11-0.32-0.29C535.38,452.13,535.48,452.23,535.45,452.45z"/>
	<path class="st11" d="M545.39,450.92c-0.04-0.08-0.01-0.13,0.08-0.16C545.43,450.81,545.4,450.86,545.39,450.92z"/>
	<path class="st13" d="M563.4,411.1c3.33-1.09,6.42-0.76,9.28,1.22c0.92,0.64,1.06,1.13,0.17,1.95c-3.21,2.95-8.74,2.8-11.74-0.37
		c-0.32-0.34-0.56-0.65-0.4-1.11c0,0-0.06-0.03-0.06-0.03c0.11-0.1,0.22-0.2,0.33-0.3c0,0,0.03,0.03,0.03,0.03
		c0.79-0.47,1.58-0.95,2.38-1.42L563.4,411.1z"/>
	<path class="st3" d="M553.08,390.41c-0.07,1.18-0.29,2.25-1.47,2.9c-0.55,0.3-1.08,0.22-1.5-0.19c-0.91-0.88-1.05-1.94-0.72-3.07
		c0.09-0.31,0.19-0.63,0.36-0.9c0.39-0.61,0.86-1.19,1.75-1.07c0.86,0.12,1.2,0.76,1.44,1.43
		C553.03,389.81,553.04,390.14,553.08,390.41z"/>
	<path class="st15" d="M563.38,411.07c-0.79,0.47-1.59,0.95-2.38,1.42c-0.2-0.4-0.87-0.69-0.54-1.19c0.32-0.48,0.78-0.01,1.18,0.02
		C562.21,411.36,562.76,410.93,563.38,411.07z"/>
	<path class="st15" d="M560.97,412.46c-0.11,0.1-0.22,0.2-0.33,0.3C560.75,412.66,560.86,412.56,560.97,412.46z"/>
	<path class="st1" d="M548.28,444.89c0.59,1.1,0.62,2.19-0.05,3.27C548.25,447.07,548.27,445.98,548.28,444.89z"/>
	<path class="st1" d="M546.02,442.21c0.18,0.11,0.37,0.22,0.55,0.33c0.08,0.11,0.16,0.22,0.24,0.34c-0.66-0.06-1.26-0.22-1.59-0.82
		C545.49,442.1,545.75,442.16,546.02,442.21z"/>
	<path class="st1" d="M547.28,443.28c0.32,0.2,0.57,0.44,0.64,0.81C547.32,444.07,547.27,443.69,547.28,443.28z"/>
	<path class="st1" d="M547.91,444.07c0.29,0.19,0.37,0.48,0.4,0.79C547.82,444.75,547.9,444.4,547.91,444.07z"/>
	<path class="st1" d="M546.8,442.86c0.16,0.14,0.32,0.27,0.47,0.41C547,443.24,546.78,443.17,546.8,442.86z"/>
	<path class="st2" d="M516.96,452.71c0.03,0.02,0.07,0.04,0.1,0.06c-0.04-0.02-0.07-0.03-0.11-0.05
		C516.95,452.72,516.96,452.71,516.96,452.71z"/>
</g>
</svg>
